<mxfile host="app.diagrams.net" agent="Mozilla/5.0 (Macintosh; Intel Mac OS X 10_15_7) AppleWebKit/537.36 (KHTML, like Gecko) Chrome/129.0.0.0 Safari/537.36" version="24.7.17">
  <diagram id="WvHjm1HEhhVKs3oMtiiu" name="Page-1">
    <mxGraphModel dx="628" dy="449" grid="1" gridSize="10" guides="1" tooltips="1" connect="1" arrows="1" fold="1" page="1" pageScale="1" pageWidth="1100" pageHeight="850" math="1" shadow="0">
      <root>
        <mxCell id="0" />
        <mxCell id="1" parent="0" />
        <mxCell id="xBYAKWbB2OGDabFkx_kC-71" value="" style="rounded=1;whiteSpace=wrap;html=1;fillColor=none;dashed=1;strokeColor=#000000;" parent="1" vertex="1">
          <mxGeometry x="170" y="105" width="50" height="120" as="geometry" />
        </mxCell>
        <mxCell id="xBYAKWbB2OGDabFkx_kC-72" value="" style="rounded=1;whiteSpace=wrap;html=1;fillColor=none;aspect=fixed;dashed=1;strokeColor=#afafaf;" parent="1" vertex="1">
          <mxGeometry x="110" y="175" width="50" height="50" as="geometry" />
        </mxCell>
        <mxCell id="xBYAKWbB2OGDabFkx_kC-73" value="" style="rounded=1;whiteSpace=wrap;html=1;fillColor=none;aspect=fixed;dashed=1;strokeColor=#afafaf;" parent="1" vertex="1">
          <mxGeometry x="40" y="175" width="50" height="50" as="geometry" />
        </mxCell>
        <mxCell id="xBYAKWbB2OGDabFkx_kC-74" value="" style="rounded=1;whiteSpace=wrap;html=1;fillColor=none;aspect=fixed;dashed=1;strokeColor=#afafaf;" parent="1" vertex="1">
          <mxGeometry x="75" y="105" width="50" height="50" as="geometry" />
        </mxCell>
        <mxCell id="xBYAKWbB2OGDabFkx_kC-75" value="&lt;font style=&quot;font-size: 19px;&quot;&gt;$$x$$&lt;/font&gt;" style="rounded=1;whiteSpace=wrap;html=1;fillColor=#ebebeb;aspect=fixed;strokeColor=#AFAFAF;" parent="1" vertex="1">
          <mxGeometry x="45" y="180" width="40" height="40" as="geometry" />
        </mxCell>
        <mxCell id="xBYAKWbB2OGDabFkx_kC-76" value="&lt;font style=&quot;font-size: 17px;&quot;&gt;$$8$$&lt;/font&gt;" style="rounded=1;whiteSpace=wrap;html=1;fillColor=#ebebeb;aspect=fixed;strokeColor=#AFAFAF;" parent="1" vertex="1">
          <mxGeometry x="115" y="180" width="40" height="40" as="geometry" />
        </mxCell>
        <mxCell id="xBYAKWbB2OGDabFkx_kC-77" value="" style="rounded=1;whiteSpace=wrap;html=1;fillColor=none;dashed=1;strokeColor=#AFAFAF;" parent="1" vertex="1">
          <mxGeometry x="75" y="35" width="145" height="50" as="geometry" />
        </mxCell>
        <mxCell id="xBYAKWbB2OGDabFkx_kC-78" style="rounded=0;orthogonalLoop=1;jettySize=auto;html=1;exitX=0.25;exitY=1;exitDx=0;exitDy=0;entryX=0.5;entryY=0;entryDx=0;entryDy=0;strokeColor=#AFAFAF;startSize=6;endSize=2;" parent="1" source="xBYAKWbB2OGDabFkx_kC-80" target="xBYAKWbB2OGDabFkx_kC-73" edge="1">
          <mxGeometry relative="1" as="geometry" />
        </mxCell>
        <mxCell id="xBYAKWbB2OGDabFkx_kC-79" style="rounded=0;orthogonalLoop=1;jettySize=auto;html=1;exitX=0.75;exitY=1;exitDx=0;exitDy=0;entryX=0.25;entryY=0;entryDx=0;entryDy=0;strokeColor=#AFAFAF;endSize=2;" parent="1" source="xBYAKWbB2OGDabFkx_kC-80" target="xBYAKWbB2OGDabFkx_kC-72" edge="1">
          <mxGeometry relative="1" as="geometry" />
        </mxCell>
        <mxCell id="xBYAKWbB2OGDabFkx_kC-80" value="&lt;font style=&quot;font-size: 17px;&quot;&gt;$$+$$&lt;/font&gt;" style="rounded=1;whiteSpace=wrap;html=1;fillColor=#ebebeb;aspect=fixed;strokeColor=#AFAFAF;" parent="1" vertex="1">
          <mxGeometry x="80" y="110" width="40" height="40" as="geometry" />
        </mxCell>
        <mxCell id="xBYAKWbB2OGDabFkx_kC-81" style="edgeStyle=orthogonalEdgeStyle;rounded=0;orthogonalLoop=1;jettySize=auto;html=1;exitX=0.25;exitY=1;exitDx=0;exitDy=0;strokeColor=#afafaf;endSize=2;entryX=0.301;entryY=-0.005;entryDx=0;entryDy=0;entryPerimeter=0;" parent="1" source="xBYAKWbB2OGDabFkx_kC-83" target="xBYAKWbB2OGDabFkx_kC-74" edge="1">
          <mxGeometry relative="1" as="geometry">
            <mxPoint x="90" y="105" as="targetPoint" />
          </mxGeometry>
        </mxCell>
        <mxCell id="xBYAKWbB2OGDabFkx_kC-82" style="edgeStyle=orthogonalEdgeStyle;rounded=1;orthogonalLoop=1;jettySize=auto;html=1;exitX=0.75;exitY=1;exitDx=0;exitDy=0;entryX=0.5;entryY=0;entryDx=0;entryDy=0;strokeColor=#afafaf;endSize=2;" parent="1" source="xBYAKWbB2OGDabFkx_kC-83" target="xBYAKWbB2OGDabFkx_kC-72" edge="1">
          <mxGeometry relative="1" as="geometry">
            <Array as="points">
              <mxPoint x="110" y="95" />
              <mxPoint x="135" y="95" />
            </Array>
          </mxGeometry>
        </mxCell>
        <mxCell id="xBYAKWbB2OGDabFkx_kC-83" value="&lt;font style=&quot;font-size: 17px;&quot;&gt;$$-$$&lt;/font&gt;" style="rounded=1;whiteSpace=wrap;html=1;fillColor=#ebebeb;aspect=fixed;strokeColor=#AFAFAF;" parent="1" vertex="1">
          <mxGeometry x="80" y="40" width="40" height="40" as="geometry" />
        </mxCell>
        <mxCell id="xBYAKWbB2OGDabFkx_kC-84" style="edgeStyle=orthogonalEdgeStyle;rounded=1;orthogonalLoop=1;jettySize=auto;html=1;exitX=0.25;exitY=1;exitDx=0;exitDy=0;entryX=0.97;entryY=0.962;entryDx=0;entryDy=0;entryPerimeter=0;endSize=2;strokeColor=#AFAFAF;" parent="1" source="xBYAKWbB2OGDabFkx_kC-86" target="xBYAKWbB2OGDabFkx_kC-73" edge="1">
          <mxGeometry relative="1" as="geometry">
            <Array as="points">
              <mxPoint x="185" y="95" />
              <mxPoint x="230" y="95" />
              <mxPoint x="230" y="235" />
              <mxPoint x="88" y="235" />
            </Array>
          </mxGeometry>
        </mxCell>
        <mxCell id="xBYAKWbB2OGDabFkx_kC-85" style="edgeStyle=orthogonalEdgeStyle;rounded=0;orthogonalLoop=1;jettySize=auto;html=1;exitX=0.75;exitY=1;exitDx=0;exitDy=0;fontFamily=Helvetica;fontSize=12;fontColor=default;endSize=2;strokeColor=#AFAFAF;entryX=0.703;entryY=0.003;entryDx=0;entryDy=0;entryPerimeter=0;" parent="1" source="xBYAKWbB2OGDabFkx_kC-86" target="xBYAKWbB2OGDabFkx_kC-71" edge="1">
          <mxGeometry relative="1" as="geometry">
            <mxPoint x="200" y="100" as="targetPoint" />
            <Array as="points">
              <mxPoint x="205" y="105" />
              <mxPoint x="205" y="105" />
            </Array>
          </mxGeometry>
        </mxCell>
        <mxCell id="xBYAKWbB2OGDabFkx_kC-86" value="&lt;font style=&quot;font-size: 17px;&quot;&gt;$$+$$&lt;/font&gt;" style="rounded=1;whiteSpace=wrap;html=1;fillColor=#ebebeb;aspect=fixed;strokeColor=#AFAFAF;" parent="1" vertex="1">
          <mxGeometry x="175" y="40" width="40" height="40" as="geometry" />
        </mxCell>
        <mxCell id="xBYAKWbB2OGDabFkx_kC-87" style="edgeStyle=orthogonalEdgeStyle;rounded=1;orthogonalLoop=1;jettySize=auto;html=1;exitX=0.25;exitY=1;exitDx=0;exitDy=0;entryX=0.75;entryY=0;entryDx=0;entryDy=0;endSize=2;strokeColor=#AFAFAF;" parent="1" source="xBYAKWbB2OGDabFkx_kC-89" target="xBYAKWbB2OGDabFkx_kC-72" edge="1">
          <mxGeometry relative="1" as="geometry">
            <Array as="points">
              <mxPoint x="175" y="160" />
              <mxPoint x="138" y="160" />
            </Array>
          </mxGeometry>
        </mxCell>
        <mxCell id="xBYAKWbB2OGDabFkx_kC-88" style="edgeStyle=orthogonalEdgeStyle;rounded=1;orthogonalLoop=1;jettySize=auto;html=1;exitX=0.75;exitY=1;exitDx=0;exitDy=0;entryX=0.75;entryY=0;entryDx=0;entryDy=0;endSize=2;strokeColor=#AFAFAF;" parent="1" source="xBYAKWbB2OGDabFkx_kC-89" target="xBYAKWbB2OGDabFkx_kC-72" edge="1">
          <mxGeometry relative="1" as="geometry">
            <Array as="points">
              <mxPoint x="200" y="160" />
              <mxPoint x="143" y="160" />
            </Array>
          </mxGeometry>
        </mxCell>
        <mxCell id="xBYAKWbB2OGDabFkx_kC-89" value="&lt;font style=&quot;font-size: 17px;&quot;&gt;$$-$$&lt;/font&gt;" style="rounded=1;whiteSpace=wrap;html=1;fillColor=#ebebeb;aspect=fixed;strokeColor=#AFAFAF;" parent="1" vertex="1">
          <mxGeometry x="175" y="110" width="40" height="40" as="geometry" />
        </mxCell>
        <mxCell id="xBYAKWbB2OGDabFkx_kC-90" value="&lt;font style=&quot;font-size: 17px;&quot;&gt;$$0$$&lt;/font&gt;" style="rounded=1;whiteSpace=wrap;html=1;fillColor=none;aspect=fixed;" parent="1" vertex="1">
          <mxGeometry x="175" y="180" width="40" height="40" as="geometry" />
        </mxCell>
      </root>
    </mxGraphModel>
  </diagram>
</mxfile>
